<?xml version="1.0" encoding="utf-8"?>
<svg xmlns="http://www.w3.org/2000/svg" viewBox="0 0 500 500">
  <g transform="matrix(12.565735, 0, 0, 12.565735, 17.156946, 1.726207)" style="">
    <path d="M 18.53 1.354 L 35.135 6.309 L 35.135 22.236 C 35.135 29.314 29.6 34.623 18.53 38.163 C 7.46 34.623 1.925 29.314 1.925 22.236 L 1.925 6.309 L 18.53 1.354 Z" fill="none" stroke-width="9" stroke-linejoin="round" style="stroke-width: 9;"/>
    <path d="M 18.912 0.071 L 35.518 5.026 C 36.084 5.195 36.473 5.716 36.473 6.308 L 36.473 22.235 C 36.415 26.047 34.858 29.663 31.91 32.491 C 29.012 35.272 24.584 37.62 18.937 39.436 C 18.673 39.522 18.388 39.522 18.123 39.436 C 12.477 37.62 8.049 35.272 5.15 32.491 C 2.201 29.663 0.645 26.047 0.587 22.235 L 0.587 6.308 C 0.587 5.716 0.976 5.195 1.542 5.026 L 18.147 0.071 C 18.397 -0.003 18.663 -0.003 18.912 0.071 Z M 3.263 7.304 L 3.263 22.235 C 3.205 25.502 4.416 28.08 7.002 30.56 C 9.639 33.088 13.106 35.034 18.53 36.757 C 23.741 35.06 27.421 33.088 30.058 30.56 C 32.644 28.08 33.855 25.502 33.797 22.235 L 33.797 7.304 L 18.53 2.749 L 3.263 7.304 Z" style="fill: rgb(14, 165, 233); stroke-width: 1;"/>
    <path d="M 18.53 3.831 L 32.551 8.079 L 32.551 22.059 C 32.551 28.076 27.878 32.619 18.53 35.685 C 9.182 32.619 4.508 28.076 4.508 22.059 L 4.508 8.079 L 18.53 3.831 Z" fill="none" stroke-width="2.5" stroke-linejoin="round" style="stroke-width: 2.5;"/>
    <path d="M 18.638 3.475 L 32.66 7.723 C 32.816 7.77 32.924 7.915 32.924 8.078 L 32.924 22.058 C 32.907 25.142 31.692 27.924 29.306 30.244 C 26.933 32.55 23.351 34.49 18.646 36.038 C 18.57 36.063 18.49 36.063 18.415 36.038 C 13.71 34.49 10.128 32.55 7.755 30.244 C 5.368 27.924 4.152 25.142 4.136 22.058 L 4.136 8.078 C 4.136 7.915 4.243 7.77 4.401 7.723 L 18.422 3.475 C 18.493 3.454 18.567 3.454 18.638 3.475 Z M 4.881 8.353 L 4.881 22.058 C 4.864 24.991 5.985 27.487 8.273 29.711 C 10.573 31.947 13.887 33.773 18.53 35.293 C 23.115 33.78 26.487 31.947 28.787 29.711 C 31.074 27.487 32.195 24.991 32.179 22.058 L 32.179 8.353 L 18.53 4.218 L 4.881 8.353 Z" style="fill: rgb(2, 132, 199); stroke-width: 1;"/>
    <g transform="matrix(0.223785, 0, 0, 0.223785, -30.299549, -13.568044)" style="">
      <path d="M 201.004 146.857 L 201.004 130.365 C 201.004 120.469 206.736 115.523 218.199 115.523 C 229.661 115.523 235.392 120.469 235.392 130.365 L 235.392 146.857" fill="none" stroke="#10b981" stroke-width="11" stroke-linecap="round" stroke-linejoin="round" style=""/>
      <rect x="193.267" y="144.383" width="49.864" height="37.932" rx="7" fill="#10b981" style=""/>
      <circle cx="160" cy="163" r="7.5" fill="#065f46" style="" transform="matrix(0.859698, 0, 0, 0.824605, 80.644745, 24.816418)"/>
      <rect x="215.191" y="163.35" width="6.017" height="9.071" rx="3" fill="#065f46" style=""/>
    </g>
  </g>
</svg>