<?xml version="1.0" encoding="utf-8"?>
<svg xmlns="http://www.w3.org/2000/svg" viewBox="0 -2 24 24" fill="currentColor" aria-hidden="true" class="size-5 fill-[#24292F] dark:fill-white">
  <path fill="#f3f3f3" d="M 43.393 21.301 L 43.393 -1.699 L 43.393 21.301 Z" style="stroke-width: 1;"/>
  <g style="" transform="matrix(0.831606, 0, 0, 0.831587, 0.002189, 0.001853)">
    <path d="M 12.274 4.761 C 14.082 4.761 15.701 5.371 16.979 6.561 L 20.478 3.136 C 18.353 1.201 15.579 0.011 12.274 0.011 C 7.482 0.011 3.339 2.701 1.321 6.621 L 5.397 9.716 C 6.363 6.871 9.076 4.761 12.274 4.761 Z" fill="#EA4335" style="stroke-width: 1;"/>
    <path d="M 24.013 12.286 C 24.013 11.501 23.936 10.741 23.819 10.011 L 12.274 10.011 L 12.274 14.521 L 18.884 14.521 C 18.588 16.001 17.729 17.261 16.442 18.111 L 20.391 21.111 C 22.695 19.021 24.013 15.931 24.013 12.286 Z" fill="#4285F4" style="stroke-width: 1;"/>
    <path d="M 5.392 14.306 C 5.147 13.581 5.004 12.811 5.004 12.011 C 5.004 11.211 5.142 10.441 5.392 9.716 L 1.316 6.621 C 0.483 8.241 0.013 10.071 0.013 12.011 C 0.013 13.951 0.483 15.781 1.321 17.401 L 5.392 14.306 Z" fill="#FBBC05" style="stroke-width: 1;"/>
    <path d="M 12.274 24.011 C 15.584 24.011 18.368 22.946 20.391 21.106 L 16.442 18.106 C 15.344 18.831 13.929 19.256 12.274 19.256 C 9.076 19.256 6.363 17.146 5.392 14.301 L 1.316 17.396 C 3.339 21.321 7.482 24.011 12.274 24.011 Z" fill="#34A853" style="stroke-width: 1;"/>
  </g>
</svg>